<?xml version="1.0" encoding="iso-8859-1"?>
<!-- Generator: Adobe Illustrator 19.0.0, SVG Export Plug-In . SVG Version: 6.00 Build 0)  -->
<svg version="1.1" id="Capa_1" xmlns="http://www.w3.org/2000/svg" xmlns:xlink="http://www.w3.org/1999/xlink" x="0px" y="0px"
	 viewBox="0 0 512 512" style="enable-background:new 0 0 512 512;" xml:space="preserve">
<path style="fill:#D2C5C2;" d="M90,91H45H15c-8.284,0-15,6.714-15,15v330c0,24.853,20.147,45,45,45h135V91H90z"/>
<path style="fill:#EDE9E8;" d="M512,46v375c0,32.999-27.001,60-60,60H45c24.901,0,45-20.101,45-45V46c0-8.401,6.599-15,15-15h392
	C505.401,31,512,37.599,512,46z"/>
<path style="fill:#DFD7D5;" d="M512,46v375c0,32.999-27.001,60-60,60H301V31h196C505.401,31,512,37.599,512,46z"/>
<path style="fill:#D2C5C2;" d="M437,121H165c-8.401,0-15,6.599-15,15v60c0,8.399,6.599,15,15,15h272c8.401,0,15-6.601,15-15v-60
	C452,127.599,445.401,121,437,121z"/>
<path style="fill:#C4B3AF;" d="M437,391H316c-8.291,0-15-6.709-15-15V256c0-8.291,6.709-15,15-15h121c8.291,0,15,6.709,15,15v120
	C452,384.291,445.291,391,437,391z"/>
<g>
	<path style="fill:#D2C5C2;" d="M256,391h-91c-8.291,0-15-6.709-15-15s6.709-15,15-15h91c8.291,0,15,6.709,15,15
		S264.291,391,256,391z"/>
	<path style="fill:#D2C5C2;" d="M256,331h-91c-8.291,0-15-6.709-15-15s6.709-15,15-15h91c8.291,0,15,6.709,15,15
		S264.291,331,256,331z"/>
	<path style="fill:#D2C5C2;" d="M256,271h-91c-8.291,0-15-6.709-15-15s6.709-15,15-15h91c8.291,0,15,6.709,15,15
		C271,264.291,264.291,271,256,271z"/>
</g>
<path style="fill:#C4B3AF;" d="M452,136v60c0,8.399-6.599,15-15,15H301v-90h136C445.401,121,452,127.599,452,136z"/>
<g>
</g>
<g>
</g>
<g>
</g>
<g>
</g>
<g>
</g>
<g>
</g>
<g>
</g>
<g>
</g>
<g>
</g>
<g>
</g>
<g>
</g>
<g>
</g>
<g>
</g>
<g>
</g>
<g>
</g>
</svg>
